<?xml version="1.0" encoding="UTF-8"?>
<svg version="1.1" viewBox="0 0 2000 2000" xmlns="http://www.w3.org/2000/svg">
 <g transform="translate(0 947.64)">
  <g transform="matrix(3.4544 0 0 3.4544 135.76 -2696.8)" fill-rule="evenodd">
   <circle transform="rotate(-90)" cx="-796.79" cy="254.58" r="247.5" fill="#fff" stroke="#045" stroke-linecap="round" stroke-width="5"/>
   <g transform="matrix(1.1851 0 0 1.1867 -49.383 -130.63)" stroke="#045" stroke-linecap="round" stroke-width="6.7459">
    <rect x="122.33" y="677.6" width="291.26" height="200.97" ry="10.66" fill="#045"/>
    <path d="m130.77 877.99c36.726-13.602 77.768-30.087 113.74-7.6366 7.8389 4.8923 16.598-7.4796 16.679-16.77l1.519-174.18c0.0811-9.29-7.9309-13.794-16.679-16.77-29.127-9.9087-50.231-7.369-109.43 10.964-8.8267 2.7333-16.679 2.6248-16.679 11.915v175.7c0 9.2903 0.98675 20.424 10.854 16.77z" fill="#0a8"/>
    <path d="m401.37 877.02c-36.726-13.602-77.768-30.087-113.74-7.6366-7.8389 4.8923-16.598-7.4796-16.679-16.77l-1.519-174.18c-0.0811-9.29 7.9309-13.794 16.679-16.77 29.127-9.9087 50.231-7.369 109.43 10.964 8.8267 2.7333 16.679 2.6248 16.679 11.915v175.7c0 9.2903-0.98675 20.424-10.854 16.77z" fill="#0a8"/>
   </g>
   <g fill="#5df">
    <path d="m113.38 689.13c41.925-9.6382 87.366-35.439 124.7 0 1.0045 0.95356 2.5 1.115 2.5 2.5s-1.481 3.438-2.5 2.5c-39.262-36.142-83.085-9.807-124.7 0-1.3481 0.31771-2.5-1.115-2.5-2.5s1.1502-2.1897 2.5-2.5z"/>
    <path d="m113.38 701.13c41.925-9.6382 87.366-35.439 124.7 0 1.0045 0.95356 2.5 1.115 2.5 2.5s-1.481 3.438-2.5 2.5c-39.262-36.142-83.085-9.807-124.7 0-1.3481 0.31771-2.5-1.115-2.5-2.5s1.1502-2.1897 2.5-2.5z"/>
    <path transform="translate(0 540.36)" d="m175.84 156.14c-20.759 3.4145-42.026 11.937-62.461 16.635-1.3498 0.31031-2.5 1.115-2.5 2.5s1.1519 2.8177 2.5 2.5c20.553-4.844 41.645-13.709 62.461-17.098v-4.5371z"/>
    <path d="m113.38 725.13c41.925-9.6382 87.366-35.439 124.7 0 1.0045 0.95356 2.5 1.115 2.5 2.5s-1.481 3.438-2.5 2.5c-39.262-36.142-83.085-9.807-124.7 0-1.3481 0.31771-2.5-1.115-2.5-2.5s1.1502-2.1897 2.5-2.5z"/>
    <path d="m113.38 739.13c41.925-9.6382 87.366-35.439 124.7 0 1.0045 0.95356 2.5 1.115 2.5 2.5s-1.481 3.438-2.5 2.5c-39.262-36.142-83.085-9.807-124.7 0-1.3481 0.31771-2.5-1.115-2.5-2.5s1.1502-2.1897 2.5-2.5z"/>
    <path d="m113.38 751.13c41.925-9.6382 87.366-35.439 124.7 0 1.0045 0.95356 2.5 1.115 2.5 2.5s-1.481 3.438-2.5 2.5c-39.262-36.142-83.085-9.807-124.7 0-1.3481 0.31771-2.5-1.115-2.5-2.5s1.1502-2.1897 2.5-2.5z"/>
    <path d="m113.38 763.13c41.925-9.6382 87.366-35.439 124.7 0 1.0045 0.95356 2.5 1.115 2.5 2.5s-1.481 3.438-2.5 2.5c-39.262-36.142-83.085-9.807-124.7 0-1.3481 0.31771-2.5-1.115-2.5-2.5s1.1502-2.1897 2.5-2.5z"/>
    <path d="m113.38 775.13c41.925-9.6382 87.366-35.439 124.7 0 1.0045 0.95356 2.5 1.115 2.5 2.5s-1.481 3.438-2.5 2.5c-39.262-36.142-83.085-9.807-124.7 0-1.3481 0.31771-2.5-1.115-2.5-2.5s1.1502-2.1897 2.5-2.5z"/>
    <path transform="translate(0 540.36)" d="m189.91 230.71c-25.109 0.76257-51.446 12.3-76.527 18.066-1.3498 0.31031-2.5 1.115-2.5 2.5s1.1519 2.8177 2.5 2.5c25.2-5.9392 51.209-17.919 76.527-18.434v-4.6328z"/>
    <path d="m113.38 801.13c41.925-9.6382 87.366-35.439 124.7 0 1.0045 0.95356 2.5 1.115 2.5 2.5s-1.481 3.438-2.5 2.5c-39.262-36.142-83.085-9.807-124.7 0-1.3481 0.31771-2.5-1.115-2.5-2.5s1.1502-2.1897 2.5-2.5z"/>
    <path d="m113.38 813.13c41.925-9.6382 87.366-35.439 124.7 0 1.0045 0.95356 2.5 1.115 2.5 2.5s-1.481 3.438-2.5 2.5c-39.262-36.142-83.085-9.807-124.7 0-1.3481 0.31771-2.5-1.115-2.5-2.5s1.1502-2.1897 2.5-2.5z"/>
    <path d="m113.38 825.13c41.925-9.6382 87.366-35.439 124.7 0 1.0045 0.95356 2.5 1.115 2.5 2.5s-1.481 3.438-2.5 2.5c-39.262-36.142-83.085-9.807-124.7 0-1.3481 0.31771-2.5-1.115-2.5-2.5s1.1502-2.1897 2.5-2.5z"/>
    <path d="m113.38 839.13c41.925-9.6382 87.366-35.439 124.7 0 1.0045 0.95356 2.5 1.115 2.5 2.5s-1.481 3.438-2.5 2.5c-39.262-36.142-83.085-9.807-124.7 0-1.3481 0.31771-2.5-1.115-2.5-2.5s1.1502-2.1897 2.5-2.5z"/>
    <path transform="translate(0 540.36)" d="m147.71 301.02c-11.546 3.4216-23.063 7.1645-34.326 9.7539-1.3498 0.31031-2.5 1.115-2.5 2.5s1.1519 2.8177 2.5 2.5c11.324-2.6688 22.811-6.5456 34.326-10.07v-4.6836z"/>
    <path d="m113.38 863.13c41.925-9.6382 87.366-35.439 124.7 0 1.0045 0.95356 2.5 1.115 2.5 2.5s-1.481 3.438-2.5 2.5c-39.262-36.142-83.085-9.807-124.7 0-1.3481 0.31771-2.5-1.115-2.5-2.5s1.1502-2.1897 2.5-2.5z"/>
    <path d="m113.38 875.13c41.925-9.6382 87.366-35.439 124.7 0 1.0045 0.95356 2.5 1.115 2.5 2.5s-1.481 3.438-2.5 2.5c-39.262-36.142-83.085-9.807-124.7 0-1.3481 0.31771-2.5-1.115-2.5-2.5s1.1502-2.1897 2.5-2.5z"/>
   </g>
   <g fill="#5df">
    <path d="m418.08 689.13c-41.925-9.6382-87.366-35.439-124.7 0-1.0045 0.95356-2.5 1.115-2.5 2.5s1.481 3.438 2.5 2.5c39.262-36.142 83.085-9.807 124.7 0 1.3481 0.31771 2.5-1.115 2.5-2.5s-1.1502-2.1897-2.5-2.5z"/>
    <path d="m418.08 701.13c-41.925-9.6382-87.366-35.439-124.7 0-1.0045 0.95356-2.5 1.115-2.5 2.5s1.481 3.438 2.5 2.5c39.262-36.142 83.085-9.807 124.7 0 1.3481 0.31771 2.5-1.115 2.5-2.5s-1.1502-2.1897-2.5-2.5z"/>
    <path d="m418.08 713.13c-41.925-9.6382-87.366-35.439-124.7 0-1.0045 0.95356-2.5 1.115-2.5 2.5s1.481 3.438 2.5 2.5c39.262-36.142 83.085-9.807 124.7 0 1.3481 0.31771 2.5-1.115 2.5-2.5s-1.1502-2.1897-2.5-2.5z"/>
    <path d="m418.08 725.13c-41.925-9.6382-87.366-35.439-124.7 0-1.0045 0.95356-2.5 1.115-2.5 2.5s1.481 3.438 2.5 2.5c39.262-36.142 83.085-9.807 124.7 0 1.3481 0.31771 2.5-1.115 2.5-2.5s-1.1502-2.1897-2.5-2.5z"/>
    <path transform="translate(0 540.36)" d="m338.19 180.66c-15.667 0.14771-30.806 4.8258-44.805 18.115-1.0045 0.95356-2.5 1.115-2.5 2.5s1.481 3.438 2.5 2.5c15.1-13.9 30.875-18.539 46.939-18.451v-4.6328c-0.7117-0.0115-1.4252-0.0379-2.1348-0.0312z"/>
    <path d="m418.08 751.13c-41.925-9.6382-87.366-35.439-124.7 0-1.0045 0.95356-2.5 1.115-2.5 2.5s1.481 3.438 2.5 2.5c39.262-36.142 83.085-9.807 124.7 0 1.3481 0.31771 2.5-1.115 2.5-2.5s-1.1502-2.1897-2.5-2.5z"/>
    <path d="m418.08 763.13c-41.925-9.6382-87.366-35.439-124.7 0-1.0045 0.95356-2.5 1.115-2.5 2.5s1.481 3.438 2.5 2.5c39.262-36.142 83.085-9.807 124.7 0 1.3481 0.31771 2.5-1.115 2.5-2.5s-1.1502-2.1897-2.5-2.5z"/>
    <path d="m418.08 775.13c-41.925-9.6382-87.366-35.439-124.7 0-1.0045 0.95356-2.5 1.115-2.5 2.5s1.481 3.438 2.5 2.5c39.262-36.142 83.085-9.807 124.7 0 1.3481 0.31771 2.5-1.115 2.5-2.5s-1.1502-2.1897-2.5-2.5z"/>
    <path d="m418.08 789.13c-41.925-9.6382-87.366-35.439-124.7 0-1.0045 0.95356-2.5 1.115-2.5 2.5s1.481 3.438 2.5 2.5c39.262-36.142 83.085-9.807 124.7 0 1.3481 0.31771 2.5-1.115 2.5-2.5s-1.1502-2.1897-2.5-2.5z"/>
    <path d="m418.08 801.13c-41.925-9.6382-87.366-35.439-124.7 0-1.0045 0.95356-2.5 1.115-2.5 2.5s1.481 3.438 2.5 2.5c39.262-36.142 83.085-9.807 124.7 0 1.3481 0.31771 2.5-1.115 2.5-2.5s-1.1502-2.1897-2.5-2.5z"/>
    <path transform="translate(0 540.36)" d="m338.19 254.66c-15.667 0.14771-30.806 4.8258-44.805 18.115-1.0045 0.95356-2.5 1.115-2.5 2.5s1.481 3.438 2.5 2.5c16.454-15.147 33.71-19.299 51.268-18.314v-4.5976c-2.1623-0.13901-4.3188-0.22335-6.4629-0.20313z"/>
    <path d="m418.08 825.13c-41.925-9.6382-87.366-35.439-124.7 0-1.0045 0.95356-2.5 1.115-2.5 2.5s1.481 3.438 2.5 2.5c39.262-36.142 83.085-9.807 124.7 0 1.3481 0.31771 2.5-1.115 2.5-2.5s-1.1502-2.1897-2.5-2.5z"/>
    <path d="m418.08 839.13c-41.925-9.6382-87.366-35.439-124.7 0-1.0045 0.95356-2.5 1.115-2.5 2.5s1.481 3.438 2.5 2.5c39.262-36.142 83.085-9.807 124.7 0 1.3481 0.31771 2.5-1.115 2.5-2.5s-1.1502-2.1897-2.5-2.5z"/>
    <path d="m418.08 851.13c-41.925-9.6382-87.366-35.439-124.7 0-1.0045 0.95356-2.5 1.115-2.5 2.5s1.481 3.438 2.5 2.5c39.262-36.142 83.085-9.807 124.7 0 1.3481 0.31771 2.5-1.115 2.5-2.5s-1.1502-2.1897-2.5-2.5z"/>
    <path d="m418.08 863.13c-41.925-9.6382-87.366-35.439-124.7 0-1.0045 0.95356-2.5 1.115-2.5 2.5s1.481 3.438 2.5 2.5c39.262-36.142 83.085-9.807 124.7 0 1.3481 0.31771 2.5-1.115 2.5-2.5s-1.1502-2.1897-2.5-2.5z"/>
    <path d="m418.08 875.13c-41.925-9.6382-87.366-35.439-124.7 0-1.0045 0.95356-2.5 1.115-2.5 2.5s1.481 3.438 2.5 2.5c39.262-36.142 83.085-9.807 124.7 0 1.3481 0.31771 2.5-1.115 2.5-2.5s-1.1502-2.1897-2.5-2.5z"/>
   </g>
  </g>
 </g>
</svg>
